<svg width="71" height="18" viewBox="0 0 71 18" fill="none" xmlns="http://www.w3.org/2000/svg">
<rect x="35" width="36" height="18" rx="5" fill="#FF7ACA"/>
<path d="M5.364 8.716C5.812 8.796 6.192 9.032 6.504 9.424C6.816 9.816 6.972 10.26 6.972 10.756C6.972 11.18 6.86 11.564 6.636 11.908C6.42 12.244 6.104 12.512 5.688 12.712C5.272 12.904 4.788 13 4.236 13H0.9V4.66H4.08C4.648 4.66 5.136 4.756 5.544 4.948C5.952 5.14 6.26 5.4 6.468 5.728C6.676 6.048 6.78 6.408 6.78 6.808C6.78 7.288 6.652 7.688 6.396 8.008C6.14 8.328 5.796 8.564 5.364 8.716ZM2.268 8.164H3.96C4.408 8.164 4.756 8.064 5.004 7.864C5.26 7.656 5.388 7.36 5.388 6.976C5.388 6.6 5.26 6.308 5.004 6.1C4.756 5.884 4.408 5.776 3.96 5.776H2.268V8.164ZM4.116 11.884C4.58 11.884 4.944 11.772 5.208 11.548C5.472 11.324 5.604 11.012 5.604 10.612C5.604 10.204 5.464 9.88 5.184 9.64C4.904 9.4 4.532 9.28 4.068 9.28H2.268V11.884H4.116ZM9.15459 5.512C8.90659 5.512 8.69859 5.428 8.53059 5.26C8.36259 5.092 8.27859 4.884 8.27859 4.636C8.27859 4.388 8.36259 4.18 8.53059 4.012C8.69859 3.844 8.90659 3.76 9.15459 3.76C9.39459 3.76 9.59859 3.844 9.76659 4.012C9.93459 4.18 10.0186 4.388 10.0186 4.636C10.0186 4.884 9.93459 5.092 9.76659 5.26C9.59859 5.428 9.39459 5.512 9.15459 5.512ZM9.82659 6.388V13H8.45859V6.388H9.82659ZM14.9587 6.28C15.4787 6.28 15.9427 6.388 16.3507 6.604C16.7667 6.82 17.0907 7.14 17.3227 7.564C17.5547 7.988 17.6707 8.5 17.6707 9.1V13H16.3147V9.304C16.3147 8.712 16.1667 8.26 15.8707 7.948C15.5747 7.628 15.1707 7.468 14.6587 7.468C14.1467 7.468 13.7387 7.628 13.4347 7.948C13.1387 8.26 12.9907 8.712 12.9907 9.304V13H11.6227V6.388H12.9907V7.144C13.2147 6.872 13.4987 6.66 13.8427 6.508C14.1947 6.356 14.5667 6.28 14.9587 6.28ZM22.0796 6.28C22.5916 6.28 23.0436 6.384 23.4356 6.592C23.8356 6.792 24.1476 7.044 24.3716 7.348V6.388H25.7516V13.108C25.7516 13.716 25.6236 14.256 25.3676 14.728C25.1116 15.208 24.7396 15.584 24.2516 15.856C23.7716 16.128 23.1956 16.264 22.5236 16.264C21.6276 16.264 20.8836 16.052 20.2916 15.628C19.6996 15.212 19.3636 14.644 19.2836 13.924H20.6396C20.7436 14.268 20.9636 14.544 21.2996 14.752C21.6436 14.968 22.0516 15.076 22.5236 15.076C23.0756 15.076 23.5196 14.908 23.8556 14.572C24.1996 14.236 24.3716 13.748 24.3716 13.108V12.004C24.1396 12.316 23.8236 12.58 23.4236 12.796C23.0316 13.004 22.5836 13.108 22.0796 13.108C21.5036 13.108 20.9756 12.964 20.4956 12.676C20.0236 12.38 19.6476 11.972 19.3676 11.452C19.0956 10.924 18.9596 10.328 18.9596 9.664C18.9596 9 19.0956 8.412 19.3676 7.9C19.6476 7.388 20.0236 6.992 20.4956 6.712C20.9756 6.424 21.5036 6.28 22.0796 6.28ZM24.3716 9.688C24.3716 9.232 24.2756 8.836 24.0836 8.5C23.8996 8.164 23.6556 7.908 23.3516 7.732C23.0476 7.556 22.7196 7.468 22.3676 7.468C22.0156 7.468 21.6876 7.556 21.3836 7.732C21.0796 7.9 20.8316 8.152 20.6396 8.488C20.4556 8.816 20.3636 9.208 20.3636 9.664C20.3636 10.12 20.4556 10.52 20.6396 10.864C20.8316 11.208 21.0796 11.472 21.3836 11.656C21.6956 11.832 22.0236 11.92 22.3676 11.92C22.7196 11.92 23.0476 11.832 23.3516 11.656C23.6556 11.48 23.8996 11.224 24.0836 10.888C24.2756 10.544 24.3716 10.144 24.3716 9.688ZM33.6084 9.532C33.6084 9.78 33.5924 10.004 33.5604 10.204H28.5084C28.5484 10.732 28.7444 11.156 29.0964 11.476C29.4484 11.796 29.8804 11.956 30.3924 11.956C31.1284 11.956 31.6484 11.648 31.9524 11.032H33.4284C33.2284 11.64 32.8644 12.14 32.3364 12.532C31.8164 12.916 31.1684 13.108 30.3924 13.108C29.7604 13.108 29.1924 12.968 28.6884 12.688C28.1924 12.4 27.8004 12 27.5124 11.488C27.2324 10.968 27.0924 10.368 27.0924 9.688C27.0924 9.008 27.2284 8.412 27.5004 7.9C27.7804 7.38 28.1684 6.98 28.6644 6.7C29.1684 6.42 29.7444 6.28 30.3924 6.28C31.0164 6.28 31.5724 6.416 32.0604 6.688C32.5484 6.96 32.9284 7.344 33.2004 7.84C33.4724 8.328 33.6084 8.892 33.6084 9.532ZM32.1804 9.1C32.1724 8.596 31.9924 8.192 31.6404 7.888C31.2884 7.584 30.8524 7.432 30.3324 7.432C29.8604 7.432 29.4564 7.584 29.1204 7.888C28.7844 8.184 28.5844 8.588 28.5204 9.1H32.1804Z" fill="#FF7ACA"/>
<path d="M41.7411 13.084C41.4931 13.084 41.2851 13 41.1171 12.832C40.9491 12.664 40.8651 12.456 40.8651 12.208C40.8651 11.96 40.9491 11.752 41.1171 11.584C41.2851 11.416 41.4931 11.332 41.7411 11.332C41.9811 11.332 42.1851 11.416 42.3531 11.584C42.5211 11.752 42.6051 11.96 42.6051 12.208C42.6051 12.456 42.5211 12.664 42.3531 12.832C42.1851 13 41.9811 13.084 41.7411 13.084ZM47.4196 6.28C47.9396 6.28 48.4036 6.388 48.8116 6.604C49.2276 6.82 49.5516 7.14 49.7836 7.564C50.0156 7.988 50.1316 8.5 50.1316 9.1V13H48.7756V9.304C48.7756 8.712 48.6276 8.26 48.3316 7.948C48.0356 7.628 47.6316 7.468 47.1196 7.468C46.6076 7.468 46.1996 7.628 45.8956 7.948C45.5996 8.26 45.4516 8.712 45.4516 9.304V13H44.0836V6.388H45.4516V7.144C45.6756 6.872 45.9596 6.66 46.3036 6.508C46.6556 6.356 47.0276 6.28 47.4196 6.28ZM57.9366 9.532C57.9366 9.78 57.9206 10.004 57.8886 10.204H52.8366C52.8766 10.732 53.0726 11.156 53.4246 11.476C53.7766 11.796 54.2086 11.956 54.7206 11.956C55.4566 11.956 55.9766 11.648 56.2806 11.032H57.7566C57.5566 11.64 57.1926 12.14 56.6646 12.532C56.1446 12.916 55.4966 13.108 54.7206 13.108C54.0886 13.108 53.5206 12.968 53.0166 12.688C52.5206 12.4 52.1286 12 51.8406 11.488C51.5606 10.968 51.4206 10.368 51.4206 9.688C51.4206 9.008 51.5566 8.412 51.8286 7.9C52.1086 7.38 52.4966 6.98 52.9926 6.7C53.4966 6.42 54.0726 6.28 54.7206 6.28C55.3446 6.28 55.9006 6.416 56.3886 6.688C56.8766 6.96 57.2566 7.344 57.5286 7.84C57.8006 8.328 57.9366 8.892 57.9366 9.532ZM56.5086 9.1C56.5006 8.596 56.3206 8.192 55.9686 7.888C55.6166 7.584 55.1806 7.432 54.6606 7.432C54.1886 7.432 53.7846 7.584 53.4486 7.888C53.1126 8.184 52.9126 8.588 52.8486 9.1H56.5086ZM60.8788 7.504V11.164C60.8788 11.412 60.9348 11.592 61.0468 11.704C61.1668 11.808 61.3668 11.86 61.6468 11.86H62.4868V13H61.4068C60.7908 13 60.3188 12.856 59.9908 12.568C59.6628 12.28 59.4988 11.812 59.4988 11.164V7.504H58.7188V6.388H59.4988V4.744H60.8788V6.388H62.4868V7.504H60.8788Z" fill="white"/>
</svg>
